<svg height="496pt" viewBox="0 0 496 496" width="496pt" xmlns="http://www.w3.org/2000/svg"><path d="m456 288h-96c-4.414062 0-8-3.585938-8-8v-48c0-4.414062 3.585938-8 8-8h96c4.414062 0 8 3.585938 8 8v48c0 4.414062-3.585938 8-8 8zm0 0" fill="#f0bc5e"/><path d="m168 96h-55l-14.457031 108.375-22.703125-28.375h-27.839844v16h20.160156l41.296875 51.625 17.542969-131.625h41zm0 0"/><path d="m218.34375 138.34375-34.34375 34.34375-34.34375-34.34375-11.3125 11.3125 34.34375 34.34375-34.34375 34.34375 11.3125 11.3125 34.34375-34.34375 34.34375 34.34375 11.3125-11.3125-34.34375-34.34375 34.34375-34.34375zm0 0"/><path d="m416 320h48v16h-48zm0 0"/><path d="m352 368h48v16h-48zm0 0"/><path d="m464 144c17.648438 0 32-14.351562 32-32v-16c0-17.648438-14.351562-32-32-32h-64v-16c8.824219 0 16-7.175781 16-16v-16c0-8.824219-7.175781-16-16-16h-384c-8.824219 0-16 7.175781-16 16v16c0 8.824219 7.175781 16 16 16v183.113281h16v-183.113281h352v16h-138.425781l-60 40 60 40h138.425781v48h-136v16h73.472656c-.898437 2.511719-1.472656 5.183594-1.472656 8v8h-72v16h72v32h-244.230469v16h244.230469v136c0 13.230469 10.769531 24 24 24h128c13.230469 0 24-10.769531 24-24v-208c0-13.230469-10.769531-24-24-24h-72v-48zm-224-22.945312-25.574219-17.054688 25.574219-17.054688zm208-41.054688h16c8.824219 0 16 7.175781 16 16v16c0 8.824219-7.175781 16-16 16h-16zm-432-48v-16h384l.007812 16zm240 48h176v16h-176zm216 128c4.40625 0 8 3.585938 8 8v208c0 4.414062-3.59375 8-8 8h-128c-4.40625 0-8-3.585938-8-8v-208c0-4.414062 3.59375-8 8-8zm-216-80v-16h176v16zm0 0"/><path d="m352 400h48v16h-48zm0 0"/><path d="m368 352h16v-16h16v-16h-16v-16h-16v16h-16v16h16zm0 0"/><path d="m450.34375 370.34375-10.34375 10.34375-10.34375-10.34375-11.3125 11.3125 10.34375 10.34375-10.34375 10.34375 11.3125 11.3125 10.34375-10.34375 10.34375 10.34375 11.3125-11.3125-10.34375-10.34375 10.34375-10.34375zm0 0"/><path d="m248 160h120v16h-120zm0 0"/><path d="m0 197.441406v298.558594h316.121094zm56 129.917969 119.265625 112.640625h-119.265625zm0 0" fill="#f0bc5e"/><path d="m195.382812 448h-147.382812v-139.199219zm-131.382812-16h91.144531l-91.144531-86.078125zm0 0"/><path d="m0 448h32v16h-32zm0 0"/><path d="m0 416h32v16h-32zm0 0"/><path d="m0 384h32v16h-32zm0 0"/><path d="m0 352h32v16h-32zm0 0"/><path d="m0 320h32v16h-32zm0 0"/><path d="m0 288h32v16h-32zm0 0"/></svg>